Coordinates
version=1
nRows=11
nColumns=40
inDegrees=yes

Units are S.I. units (second, meters, Newtons, ...)
Angles are in degrees.

endheader
time	pelvis_tilt	pelvis_list	pelvis_rotation	pelvis_tx	pelvis_ty	pelvis_tz	hip_flexion_r	hip_adduction_r	hip_rotation_r	knee_angle_r	knee_angle_r_beta	ankle_angle_r	subtalar_angle_r	mtp_angle_r	hip_flexion_l	hip_adduction_l	hip_rotation_l	knee_angle_l	knee_angle_l_beta	ankle_angle_l	subtalar_angle_l	mtp_angle_l	lumbar_extension	lumbar_bending	lumbar_rotation	arm_flex_r	arm_add_r	arm_rot_r	elbow_flex_r	pro_sup_r	wrist_flex_r	wrist_dev_r	arm_flex_l	arm_add_l	arm_rot_l	elbow_flex_l	pro_sup_l	wrist_flex_l	wrist_dev_l
     31.78000000	     -2.14250433	     -5.57108540	      6.44372619	      1.05998165	      0.92547053	      0.46508701	      1.24029786	      2.93593739	    -16.21146290	     12.27173017	     12.27173017	     14.91421492	      2.01100218	     -7.52870043	     28.77906959	     -7.94670575	     -0.28518114	     23.12020075	     23.12020075	      4.50779997	     -7.93557847	      4.08966687	    -10.17929218	      5.76272539	      2.81946124	     27.81049704	    -17.24064155	     -0.68849121	     74.37209273	     44.73584913	      0.00000000	      0.00000000	     -4.79793053	     -9.65267696	    -11.86465647	     31.74716831	     46.94731458	      0.00000000	      0.00000000
     31.79285714	     -2.15814125	     -5.76850490	      6.46444547	      1.06178943	      0.92430929	      0.46312679	      0.71102746	      3.09197689	    -16.19185015	     12.16555699	     12.16555699	     15.36505740	      2.09790000	     -7.31834324	     28.57979092	     -7.99586816	      0.01640123	     24.07959956	     24.07959956	      4.64943123	     -8.92001265	      4.03195185	     -9.99995000	      5.82245077	      2.69082442	     27.61057977	    -16.82955056	     -0.70112303	     75.85876862	     44.69396166	      0.00000000	      0.00000000	     -5.12544395	     -9.68118367	    -12.01373441	     31.66889564	     46.95311907	      0.00000000	      0.00000000
     31.80571429	     -2.18771455	     -5.72402555	      6.36934777	      1.06376524	      0.92332405	      0.46109190	      0.22504153	      2.94735016	    -15.98939036	     12.18141063	     12.18141063	     15.76951964	      2.13401864	     -7.30806048	     28.19354360	     -7.88095737	     -0.04211427	     24.74836718	     24.74836718	      4.87672242	     -9.42607107	      3.90124199	     -9.75496818	      5.59236315	      2.84047005	     27.32407090	    -16.54203590	     -0.61498626	     76.24353222	     44.67934917	      0.00000000	      0.00000000	     -5.31881113	     -9.75056997	    -12.07709152	     31.62641106	     46.95616697	      0.00000000	      0.00000000
     31.81857143	     -2.27128324	     -5.79139108	      6.34697222	      1.06558801	      0.92221698	      0.45890841	     -0.12894825	      2.90925930	    -15.85562216	     12.31062170	     12.31062170	     16.42592353	      2.13684812	     -6.45066901	     28.02589770	     -7.73806506	      0.41439572	     25.51353283	     25.51353283	      5.14843378	    -10.40609672	      3.91942758	     -9.59423355	      5.49617382	      2.90790126	     26.50802839	    -16.35589893	     -0.71180065	     78.71301732	     44.61517575	      0.00000000	      0.00000000	     -5.52665541	     -9.75470518	    -12.40362251	     31.89173412	     46.97866310	      0.00000000	      0.00000000
     31.83142857	     -2.28815342	     -5.73268234	      6.26655678	      1.06750824	      0.92138210	      0.45664271	     -0.55022738	      2.71053434	    -15.69694666	     12.47021424	     12.47021424	     16.82208730	      2.10756342	     -6.30275427	     27.74466740	     -7.57085481	      0.50678210	     26.18159516	     26.18159516	      5.56360308	    -10.78158016	      3.67611337	     -9.45064503	      5.23063081	      3.06385660	     26.14036725	    -16.15615955	     -0.67255611	     79.01199359	     44.60712805	      0.00000000	      0.00000000	     -5.52130898	     -9.83707959	    -12.46927112	     31.91742142	     46.98275561	      0.00000000	      0.00000000
     31.84428571	     -2.32472924	     -5.63052554	      6.18623759	      1.06936550	      0.92068975	      0.45421048	     -0.92351070	      2.44744387	    -15.55920975	     12.66039612	     12.66039612	     17.12500805	      2.01502129	     -6.17932247	     27.51446867	     -7.34096825	      0.59424272	     26.81099185	     26.81099185	      6.02458241	    -11.17287439	      3.41407826	     -9.29128924	      4.94712613	      3.08552989	     25.70061701	    -15.85403006	     -0.56656155	     79.24070986	     44.59691470	      0.00000000	      0.00000000	     -5.50840836	     -9.90352358	    -12.50732128	     31.93571610	     46.98518980	      0.00000000	      0.00000000
     31.85714286	     -2.50795220	     -5.53140317	      6.10460077	      1.07089812	      0.91991567	      0.45162987	     -0.77174748	      2.07416488	    -15.29937470	     13.56946052	     13.56946052	     17.95804942	      1.66301323	     -4.72991598	     27.48146062	     -7.01981815	      0.90361452	     27.38734840	     27.38734840	      6.46240902	    -11.83118867	      3.29814356	     -9.09537234	      4.67016740	      3.28429892	     24.76052018	    -15.79706971	     -0.69397690	     80.86643473	     44.56657868	      0.00000000	      0.00000000	     -5.37197305	     -9.92959167	    -12.69096830	     32.14602717	     46.98809301	      0.00000000	      0.00000000
     31.87000000	     -2.46963431	     -5.42303108	      6.05104388	      1.07262760	      0.91978861	      0.44891920	     -1.14426590	      1.76577945	    -15.21892762	     13.87560489	     13.87560489	     18.06631389	      1.57427075	     -4.62044174	     27.17431060	     -6.76912834	      0.99354518	     27.88083278	     27.88083278	      6.99895289	    -12.06977245	      3.01411332	     -9.05867005	      4.40635615	      3.28071352	     24.24940765	    -15.53038011	     -0.56378348	     80.81133617	     44.56444516	      0.00000000	      0.00000000	     -5.19231951	     -9.96885646	    -12.69067646	     32.18819339	     46.98801457	      0.00000000	      0.00000000
     31.88285714	     -2.58027481	     -5.25777579	      5.93228593	      1.07400227	      0.91961382	      0.44613276	     -0.89876148	      1.23667837	    -15.04272909	     15.04774702	     15.04774702	     18.38540636	      1.25162383	     -4.15684202	     26.99857158	     -6.45075248	      1.02088588	     28.28678762	     28.28678762	      7.50181256	    -12.31921336	      2.81390359	     -8.95129272	      4.09589063	      3.37418651	     23.59867692	    -15.41202095	     -0.48831668	     80.91447733	     44.56697939	      0.00000000	      0.00000000	     -4.86316376	    -10.00654800	    -12.65828872	     32.20277539	     46.97644261	      0.00000000	      0.00000000
     31.89571429	     -2.61712731	     -5.11704188	      5.83393257	      1.07541514	      0.91985062	      0.44327406	     -0.64692390	      0.71313475	    -14.97461686	     16.42547568	     16.42547568	     19.15849950	      1.08368244	     -2.14866195	     26.66863798	     -6.16354029	      0.99717914	     28.54603531	     28.54603531	      8.11055756	    -12.50721635	      2.90843450	     -8.86338612	      3.82978845	      3.71123668	     22.65574477	    -15.39130036	     -0.56194829	     81.17496597	     44.61441223	      0.00000000	      0.00000000	     -4.22434977	    -10.04812458	    -12.25294162	     31.79217605	     46.86830948	      0.00000000	      0.00000000
     31.90857143	     -2.65162456	     -4.97832516	      5.68378892	      1.07669417	      0.92023299	      0.44039694	     -0.28998959	      0.14870319	    -14.80152578	     17.89388039	     17.89388039	     19.08534295	      0.70708307	     -2.40133217	     26.30142655	     -5.92946910	      0.82536901	     28.73817157	     28.73817157	      8.60279844	    -12.52294112	      2.67142204	     -8.80570028	      3.57643776	      3.72243690	     22.03019604	    -15.26443287	     -0.36774977	     80.71672310	     44.62919316	      0.00000000	      0.00000000	     -3.83297648	    -10.08087793	    -12.16846470	     31.91413910	     46.85335693	      0.00000000	      0.00000000
